inDegrees=no
num_controls=7
num_derivatives=13
num_iterations=106
num_multipliers=7
num_parameters=0
num_slacks=7
num_states=26
objective=0.445866
objective_accelerations=0.057069
objective_balance=0.003397
objective_effort=0.022580
objective_height=0.357288
objective_ligament=0.005533
solver_duration=1434.573837
status=Solve_Succeeded
success=true
DataType=double
version=3
OpenSimVersion=4.5
endheader
time	/jointset/ground_pelvis/pelvis_tilt/value	/jointset/ground_pelvis/pelvis_tx/value	/jointset/ground_pelvis/pelvis_ty/value	/jointset/hip_l/hip_flexion_l/value	/jointset/hip_l/hip_adduction_l/value	/jointset/hip_l/hip_rotation_l/value	/jointset/back/lumbar_extension/value	/jointset/patellofemoral_l/patellar_flexion_l/value	/jointset/knee_l/knee_flexion_l/value	/jointset/knee_l/knee_adduction_l/value	/jointset/knee_l/knee_rotation_l/value	/jointset/ankle_l/ankle_angle_l/value	/jointset/subtalar_l/subtalar_angle_l/value	/jointset/ground_pelvis/pelvis_tilt/speed	/jointset/ground_pelvis/pelvis_tx/speed	/jointset/ground_pelvis/pelvis_ty/speed	/jointset/hip_l/hip_flexion_l/speed	/jointset/hip_l/hip_adduction_l/speed	/jointset/hip_l/hip_rotation_l/speed	/jointset/back/lumbar_extension/speed	/jointset/patellofemoral_l/patellar_flexion_l/speed	/jointset/knee_l/knee_flexion_l/speed	/jointset/knee_l/knee_adduction_l/speed	/jointset/knee_l/knee_rotation_l/speed	/jointset/ankle_l/ankle_angle_l/speed	/jointset/subtalar_l/subtalar_angle_l/speed	/forceset/tau_hip_flexion_l	/forceset/tau_hip_adduction_l	/forceset/tau_hip_rotation_l	/forceset/tau_knee_flexion_l	/forceset/tau_ankle_angle_l	/forceset/tau_subtalar_angle_l	/forceset/tau_lumbar_extension	lambda_cid13_p0	lambda_cid13_p1	lambda_cid13_p2	lambda_cid13_p3	lambda_cid13_p4	lambda_cid13_p5	lambda_cid14_p0	/jointset/ground_pelvis/pelvis_tilt/accel	/jointset/ground_pelvis/pelvis_tx/accel	/jointset/ground_pelvis/pelvis_ty/accel	/jointset/hip_l/hip_flexion_l/accel	/jointset/hip_l/hip_adduction_l/accel	/jointset/hip_l/hip_rotation_l/accel	/jointset/back/lumbar_extension/accel	/jointset/patellofemoral_l/patellar_flexion_l/accel	/jointset/knee_l/knee_flexion_l/accel	/jointset/knee_l/knee_adduction_l/accel	/jointset/knee_l/knee_rotation_l/accel	/jointset/ankle_l/ankle_angle_l/accel	/jointset/subtalar_l/subtalar_angle_l/accel	gamma_cid13_p0	gamma_cid13_p1	gamma_cid13_p2	gamma_cid13_p3	gamma_cid13_p4	gamma_cid13_p5	gamma_cid14_p0
1	-0.5330896255627658	-0.07393557555945517	0.5774734353826877	1.808365489861189	-0.469045311099124	0.01351544599391597	-0.2617893729885712	1.389795563166953	1.389795563167357	-0.08282098974137149	-0.1745296338159777	0.2368038914472243	-0.00229907887171757	-0.01269050733559741	0.01144115047384318	0.003342283490651185	-0.008388766774790266	-0.003158281870671214	0.004962567135089287	-2.107138110170444e-06	0.001205955382377207	0.001205955382377202	-0.007920016715958631	-0.000262214192279037	0.02188736215797443	0.00891527161285624	-0.3247922966012836	0.02014165439577285	0.0002169118650064007	-0.3096959285114263	0.03217353013638349	0.02682847745509716	0.2791854763607056	-29.52618770638211	-6.9631113380747	1.323982249493492	7.823836746610959	-641.6771844244965	-45.80605143574198	-1.310013678209059	1.488227941088839	0.2307273471416745	1.953402872402444	-6.738884327401723	-0.07143038441689091	-2.289045269910979	-0.02340615056893897	-5.31779205189939	-5.317792051899366	-0.6653910581928911	-0.0210430081552935	-0.7522901438401044	-0.5076419126289022	6.873166604847806e-09	2.394718900197351e-08	-1.21180953165666e-08	3.449100185968503e-09	-1.056480343106702e-09	2.577275336685256e-08	3.678162133073244e-09
1.01	-0.5331429398305219	-0.07380964890403939	0.5776043657600479	1.807945899835591	-0.4690794085573586	0.01344952269495017	-0.2617895611871087	1.389541993064125	1.389541993064242	-0.08293062374286637	-0.1745318989515249	0.2369854273547082	-0.002233748337337104	0.002038031402526341	0.01374955637641874	0.02283844901583741	-0.07552592157027793	-0.003651934006680088	-0.01813106070396056	-3.466264337863418e-05	-0.05190599109156266	-0.05190599109156292	-0.01400314531803996	-0.0001756990258906667	0.01442442492050967	0.004165165736866023	-0.3247372395182203	0.02025248471104675	0.0002005485611204777	-0.30946634814948	0.03199458069136504	0.02685566465653485	0.2791589312929787	-29.5674061105172	-6.972922919011649	1.331510372628439	7.729476679191378	-641.5082269480394	-45.80777382692786	-1.315241569428591	1.466722335508791	0.2317043322920968	1.94691964866339	-6.700634918795918	-0.03694282340237217	-2.317101980982817	0.006950238393468764	-5.305796372844847	-5.305796372844846	-0.5792308084214441	0.02577453330844481	-0.7426036181723941	-0.4565512736709777	-1.798933126088832e-09	1.397366006607635e-08	3.082860543974885e-08	3.773775890743518e-09	-1.13910066184482e-08	7.657602559595287e-08	-9.090084928324722e-09
1.02	-0.5330486576118297	-0.07366047676550257	0.5779300970438773	1.806855037489403	-0.4691181645759953	0.01315314702957775	-0.261790048842919	1.388757723411016	1.388757723410846	-0.08310098043982314	-0.1745328437845539	0.2370924722689229	-0.002215490131433918	0.01682878995403603	0.01609024709805831	0.04230246478449099	-0.1426432308927112	-0.004089993951068486	-0.04112790614624366	-6.19985926763189e-05	-0.1049339546736438	-0.1049339546736437	-0.02006455580834894	1.846311399420585e-06	0.006989163504135555	-0.0004991940826000565	-0.3246821824351567	0.02036331502632084	0.0001841852572338984	-0.3092367677875337	0.03181563124634661	0.02688285185797282	0.2791323862252522	-29.61477635549421	-6.981674618579347	1.33888926964777	7.659101980000528	-641.4261081162854	-45.78800147687971	-1.330624390419129	1.500671903766025	0.2371843109544758	1.946972921095914	-6.734915232790851	-0.0603119460927946	-2.269688790557629	-0.02236223937478364	-5.300995473527513	-5.300995473527508	-0.6610474358384232	-0.002836973974948762	-0.7467549796219776	-0.4904927013240742	-1.27315794623047e-08	-2.175979970652692e-09	6.985758798302364e-08	3.756780856137944e-09	-2.333736649860688e-08	1.232630351649394e-07	-2.255861486452484e-08
1.03	-0.5328063014106925	-0.07348774305416528	0.5784502409420296	1.805093354374514	-0.4691611916249713	0.01262696220463308	-0.2617907455724144	1.387443513271713	1.387443513271697	-0.08333187468840958	-0.174532040108174	0.2371250294629972	-0.002243820020449728	0.03163770723557726	0.01846111754965001	0.06171431734672624	-0.2096642704838218	-0.004521775618503576	-0.06412422498848128	-7.1977638048853e-05	-0.157902372871175	-0.1579023728711753	-0.02611336598990414	0.0001280507683534498	-0.0005001728185065659	-0.005188118640346655	-0.3242208845402867	0.02046688996259925	0.0001316311547981054	-0.3089905192660305	0.03179037626362573	0.02696873325417493	0.2788074297097748	-29.59531817449475	-7.035696153979991	1.362712150492804	7.549537060111482	-641.0531310887241	-45.85188844581969	-1.356363076144464	1.470286474112035	0.2377325164334921	1.936484666365663	-6.681334469678284	-0.03557392144171419	-2.316900987949293	0.01048971313415889	-5.293902656973194	-5.293902656973259	-0.5766732090229092	0.01575129639191358	-0.7533912322943184	-0.4613023254012038	-2.368729260061527e-08	-1.838864154922699e-08	1.088465938098388e-07	3.736299385416238e-09	-3.530017366044738e-08	1.699080420537206e-07	-3.60342905443454e-08
1.04	-0.5324159990699872	-0.07329116181747766	0.5791641420143199	1.802662333634232	-0.4692087290194962	0.01187035467988768	-0.2617913810023131	1.385599791417613	1.385599791417751	-0.08362323211875321	-0.1745308939590522	0.2370820196391032	-0.002319681153523253	0.04641801786767302	0.02085975216812063	0.08105389961209479	-0.2765107559712175	-0.004992063060852692	-0.08721244610641768	-4.973867335277169e-05	-0.2108362976329978	-0.2108362976329985	-0.03215719215981302	7.034085976088543e-05	-0.008124240089508284	-0.01000544289414332	-0.3237595866454174	0.02057046489887807	7.907705236205937e-05	-0.3087442707445319	0.03176512128090492	0.02705461465037764	0.2784824731942978	-29.58207043303033	-7.088735614828229	1.38649876326722	7.463930907441217	-640.7675526197247	-45.8947232425197	-1.392755013634127	1.494950573876932	0.242737144330259	1.932518861722576	-6.700004412047875	-0.06801310107559864	-2.288069245697391	-0.01591863736106078	-5.294096786385865	-5.294096786385869	-0.6600506335091609	-0.03961984708426571	-0.7737011692938973	-0.5161726405340875	-2.651333424600104e-08	-1.267318257924954e-08	1.556295975761175e-07	9.002394551206631e-09	-4.283446881469361e-08	2.104800093903038e-07	-4.32675466730805e-08
1.05	-0.5318780062924805	-0.0730704591988509	0.5800710184959398	1.799563922612884	-0.4692605453953413	0.01088310044325311	-0.2617917363405946	1.383226940981906	1.383226940981929	-0.08397474041035015	-0.1745301221330599	0.2369621145866255	-0.002443544995994861	0.06117691068460206	0.02328477662799324	0.1003034243316742	-0.3431200757564293	-0.00531391534537864	-0.1101820543797735	-2.437395894340081e-05	-0.2637247768113694	-0.2637247768113691	-0.03811571463838475	0.0001701424810410289	-0.01587697550390921	-0.01470465553413716	-0.3229777468245226	0.02081496328191272	-2.356590119309906e-07	-0.3083774674017771	0.03182114533340188	0.02718349087913129	0.2779182264592781	-29.52405095787239	-7.175143484831164	1.423436995263003	7.329508341967025	-640.1871810849226	-45.98943432143002	-1.440279491910004	1.465809741901162	0.2429887990298706	1.918463299265286	-6.633695742713051	-0.005698596863304844	-2.292986291774652	0.01130727944101723	-5.284861446752506	-5.284861446752539	-0.559457229850941	0.04774736998448549	-0.7790888205553921	-0.4374182209158878	-2.908532365723295e-08	-6.272469842129985e-09	2.026561637780044e-07	1.4433695236888e-08	-5.023037296870255e-08	2.508621942408807e-07	-5.030572719084422e-08
1.06	-0.5311925343655445	-0.07282538559518258	0.5811698490291932	1.795800958397493	-0.4693138657549762	0.009667834189161095	-0.2617919293810121	1.380325478161776	1.380325478161686	-0.08438497476169667	-0.1745257588502045	0.2367640763613954	-0.002612525493903179	0.07591384775354204	0.02573394917643076	0.1194447099388393	-0.4094213947798509	-0.005292859818793148	-0.1328148495979286	-1.727910057082071e-05	-0.3165587745173291	-0.3165587745173304	-0.04390240410974697	0.000788632232334409	-0.02375087463999507	-0.01902877398148528	-0.3221959070036275	0.0210594616649477	-7.954837038630637e-05	-0.3080106640590224	0.03187716938589889	0.02731236710788539	0.2773539797242586	-29.47233133666927	-7.260534971819012	1.460312275598488	7.219460764905556	-639.6951414532776	-46.06414970093765	-1.49942587832885	1.490559424279121	0.2475667620432432	1.910871039239729	-6.638404259689881	0.0005684611466889623	-2.220706634657265	-0.01957260856841916	-5.283200491903498	-5.283200491903506	-0.62568403206726	0.06411777891838168	-0.7979339136305662	-0.4411538020049462	-3.7398877784901e-08	-1.636310955182234e-08	2.438198146920926e-07	1.497517367037174e-08	-6.005382095275813e-08	2.944681403229294e-07	-6.201043288367169e-08
1.07	-0.5303597155982286	-0.07255563924049357	0.5824594560314311	1.791376633462575	-0.4693653844643914	0.008227829397833529	-0.2617920992389388	1.376896138724186	1.376896138723964	-0.08485223439547364	-0.1745129639131003	0.2364866639459756	-0.002823045474547418	0.09065271465900585	0.0282251042250456	0.1384491044432439	-0.4753788384901875	-0.004963325881656801	-0.1551380773452121	-1.301831156670249e-05	-0.3692814464695863	-0.3692814464695872	-0.04951973723230362	0.001827491021145585	-0.03175410272241577	-0.02302619616459331	-0.3211633160720279	0.02131960787122309	-0.0001949683967435059	-0.3074293282722913	0.03199536646384397	0.0275175125948528	0.2766320009553911	-29.37673551790801	-7.396135557405315	1.515932618903379	7.009470694906197	-638.871005849493	-46.19642509174027	-1.570846595776203	1.46596454704423	0.2513603011118763	1.891071604194844	-6.564709872879105	0.05624911948181979	-2.230973224868218	0.01097654861418184	-5.262635605518827	-5.262635605518748	-0.5253163321275962	0.1324094218463673	-0.8048905719307519	-0.3717117564197612	-4.601783429110291e-08	-2.733094885974947e-08	2.846716084100212e-07	1.525655517554708e-08	-7.000639360862471e-08	3.382455630662265e-07	-7.396335800070472e-08
1.08	-0.5293794253171851	-0.07226068725035019	0.5839382765683439	1.78629467500132	-0.4694121871825382	0.006566023853012204	-0.2617921162637796	1.372940405555347	1.372940405554993	-0.08537477903643177	-0.1744880524895112	0.2361285445864549	-0.003072074743013943	0.1054081504990408	0.03077507626731145	0.1572874168738092	-0.5409481000474681	-0.004349661565131973	-0.1771750002966683	1.328751661253642e-05	-0.4218375207671234	-0.4218375207671236	-0.05495940554596962	0.003211929529312013	-0.03989226346015375	-0.02673063154594259	-0.320130725140428	0.02157975407749835	-0.000310388423101788	-0.306847992485559	0.03211356354178901	0.02772265808182003	0.2759100221865238	-29.28747095057399	-7.530551474580684	1.571277242339321	6.824105431839189	-638.135566242467	-46.31043151516985	-1.655266392585064	1.493873211193362	0.2593301607734461	1.877654624471851	-6.560767829078823	0.05739453702438442	-2.16344567549177	-0.01516360073339522	-5.249880960959439	-5.249880960959438	-0.5901510702891316	0.1332337227894321	-0.8249204446940246	-0.3825564416531979	-4.921608643051247e-08	-2.230593231255372e-08	3.296247618731231e-07	2.005328376841741e-08	-7.686718654608918e-08	3.733964295020425e-07	-8.087667019611446e-08
